<svg width="140" height="74" viewBox="0 0 140 74" fill="none" xmlns="http://www.w3.org/2000/svg">
<path d="M106.733 5.0526L136.733 36.0526L138.537 37.916C139.324 38.7301 139.279 40.0354 138.437 40.7933L136.511 42.5272L106.511 69.5272L102.338 73.2828C101.051 74.4411 99 73.5278 99 71.7962V45.6825C99 44.5779 98.1046 43.6825 97 43.6825H4.5C2.01472 43.6825 0 41.6678 0 39.1825C0.000152553 36.6973 2.01481 34.6825 4.5 34.6825H97C98.1046 34.6825 99 33.787 99 32.6825V2.00402C99 0.20636 101.187 -0.678625 102.437 0.613181L106.733 5.0526Z" fill="black"/>
</svg>
