<svg width="42" height="39" viewBox="0 0 42 39" fill="none" xmlns="http://www.w3.org/2000/svg">
<path d="M38.9056 11.8146C36.6509 8.72085 33.5009 6.65366 30.0462 5.72085V5.72553C29.2447 4.83491 28.34 4.0146 27.3275 3.28335C19.6541 -2.29478 8.88219 -0.593215 3.28062 7.08022C-1.23344 13.3146 -1.04125 21.7005 3.56187 27.6583L3.59937 33.874C3.59937 34.024 3.62281 34.174 3.66969 34.3146C3.91812 35.1068 4.76187 35.5427 5.54937 35.2943L11.4837 33.424C13.0541 33.9818 14.6759 34.3005 16.2884 34.3896L16.265 34.4083C20.4416 37.4505 25.9166 38.3646 30.9369 36.7052L36.8947 38.6458C37.0447 38.6927 37.1994 38.7208 37.3587 38.7208C38.1884 38.7208 38.8587 38.0505 38.8587 37.2208V30.9396C42.9884 25.3333 43.0962 17.5849 38.9056 11.8146ZM12.14 30.0958L11.5775 29.8615L6.93687 31.3146L6.89 26.4396L6.515 26.0177C2.54937 21.1802 2.28687 14.2099 5.99937 9.09585C10.5181 2.89897 19.1806 1.53022 25.3587 6.0021C31.5556 10.5068 32.9291 19.1552 28.4525 25.3146C24.6978 30.4662 17.9759 32.3693 12.14 30.0958ZM35.8119 29.299L35.4369 29.7677L35.4837 34.6427L30.89 33.0958L30.3275 33.3302C27.7025 34.3052 24.9041 34.3849 22.3119 33.6583L22.3025 33.6537C25.7666 32.5896 28.9072 30.4333 31.1712 27.3302C34.7525 22.3943 35.3337 16.1927 33.2525 10.9052L33.2806 10.924C34.3587 11.6974 35.3478 12.663 36.1869 13.8302C39.59 18.499 39.3978 24.8552 35.8119 29.299Z" fill="black"/>
</svg>
