<svg width="29" height="25" viewBox="0 0 29 25" fill="none" xmlns="http://www.w3.org/2000/svg">
<g clip-path="url(#clip0_832_42)">
<path d="M25.1141 3.01478C24.4757 2.37604 23.7176 1.86934 22.8833 1.52364C22.049 1.17793 21.1547 1 20.2516 1C19.3485 1 18.4542 1.17793 17.6199 1.52364C16.7856 1.86934 16.0276 2.37604 15.3891 3.01478L14.0641 4.33978L12.7391 3.01478C11.4495 1.72517 9.7004 1.00067 7.87661 1.00067C6.05282 1.00067 4.30373 1.72517 3.01411 3.01478C1.7245 4.3044 1 6.05349 1 7.87728C1 9.70107 1.7245 11.4502 3.01411 12.7398L14.0641 23.7898L25.1141 12.7398C25.7529 12.1013 26.2596 11.3433 26.6053 10.509C26.951 9.67465 27.1289 8.78039 27.1289 7.87728C27.1289 6.97417 26.951 6.07991 26.6053 5.24559C26.2596 4.41126 25.7529 3.65323 25.1141 3.01478Z" fill="#FF3B30" stroke="black" stroke-width="2" stroke-linecap="round" stroke-linejoin="round"/>
</g>
<defs>
<clipPath id="clip0_832_42">
<rect width="29" height="25" fill="white"/>
</clipPath>
</defs>
</svg>
