<svg width="95" height="79" viewBox="0 0 95 79" fill="none" xmlns="http://www.w3.org/2000/svg">
<path d="M63.912 59.7981L47.412 76.2981L30.912 59.7981M47.412 76.2981V39.1731M84.042 64.2943C87.6282 61.7725 90.3176 58.1734 91.7198 54.0195C93.122 49.8657 93.164 45.373 91.8399 41.1936C90.5157 37.0142 87.8942 33.3654 84.3558 30.7769C80.8174 28.1883 76.5462 26.7946 72.162 26.7981H66.9645C65.7238 21.963 63.4025 17.4725 60.1752 13.6644C56.948 9.85633 52.8988 6.83001 48.3327 4.81327C43.7666 2.79653 38.8025 1.84193 33.814 2.02132C28.8256 2.20071 23.9429 3.50943 19.5334 5.84895C15.1239 8.18846 11.3027 11.4978 8.35726 15.5279C5.41186 19.5579 3.41907 24.2036 2.52894 29.1153C1.6388 34.0269 1.8745 39.0765 3.2183 43.8839C4.5621 48.6913 6.97898 53.1312 10.287 56.8693" stroke="black" stroke-width="4" stroke-linecap="round" stroke-linejoin="round"/>
</svg>
