<svg width="44" height="36" viewBox="0 0 44 36" fill="none" xmlns="http://www.w3.org/2000/svg">
<path d="M42 18H30L26 24H18L14 18H2M42 18V30C42 31.0609 41.5786 32.0783 40.8284 32.8284C40.0783 33.5786 39.0609 34 38 34H6C4.93913 34 3.92172 33.5786 3.17157 32.8284C2.42143 32.0783 2 31.0609 2 30V18M42 18L35.1 4.22C34.7688 3.55357 34.2584 2.99274 33.6259 2.60056C32.9935 2.20838 32.2642 2.00039 31.52 2H12.48C11.7358 2.00039 11.0065 2.20838 10.3741 2.60056C9.74165 2.99274 9.23115 3.55357 8.9 4.22L2 18" stroke="#1E1E1E" stroke-width="4" stroke-linecap="round" stroke-linejoin="round"/>
</svg>
