<svg width="21" height="5" viewBox="0 0 21 5" fill="none" xmlns="http://www.w3.org/2000/svg">
<path d="M2.02246 0.5C2.43715 0.5 2.80453 0.65427 3.09766 0.947266C3.39076 1.24037 3.54583 1.60775 3.5459 2.02246C3.5459 2.29511 3.4736 2.55265 3.33301 2.78613L3.33496 2.78711C3.20182 3.01444 3.01896 3.19874 2.79395 3.33594L2.79102 3.33789C2.55626 3.47868 2.29561 3.5459 2.02246 3.5459C1.60775 3.54583 1.24037 3.39076 0.947266 3.09766C0.65427 2.80453 0.5 2.43715 0.5 2.02246C0.500066 1.60775 0.65416 1.24037 0.947266 0.947266C1.24037 0.65416 1.60775 0.500066 2.02246 0.5ZM10.2686 0.5C10.6832 0.5 11.0506 0.65432 11.3438 0.947266C11.6369 1.24037 11.7919 1.60775 11.792 2.02246C11.792 2.29513 11.7197 2.55263 11.5791 2.78613L11.5811 2.78711C11.448 3.01431 11.2659 3.19877 11.041 3.33594L11.0371 3.33789C10.8024 3.47863 10.5417 3.5459 10.2686 3.5459C9.85391 3.54579 9.48643 3.39073 9.19336 3.09766C8.90041 2.80454 8.74609 2.43712 8.74609 2.02246C8.74616 1.60779 8.9003 1.24036 9.19336 0.947266C9.48643 0.654196 9.85391 0.500105 10.2686 0.5ZM18.5156 0.5C18.9303 0.500098 19.2977 0.654191 19.5908 0.947266C19.8839 1.24036 20.038 1.60778 20.0381 2.02246C20.0381 2.29773 19.9666 2.5587 19.8232 2.79395L19.8223 2.79297C19.6895 3.0172 19.5099 3.20008 19.2871 3.33594L19.2842 3.33789C19.0495 3.47872 18.7887 3.54583 18.5156 3.5459C18.1008 3.5459 17.7336 3.39078 17.4404 3.09766C17.1473 2.80449 16.9922 2.43728 16.9922 2.02246C16.9923 1.60775 17.1473 1.24037 17.4404 0.947266C17.7335 0.654312 18.101 0.5 18.5156 0.5Z" fill="black" stroke="black"/>
</svg>
