<svg width="181" height="111" viewBox="0 0 181 111" fill="none" xmlns="http://www.w3.org/2000/svg">
<path d="M17.0762 82.9277L0 110.572V0H17.0762V82.9277ZM17.0762 110.572H0L17.0762 110.562V110.572ZM51.2275 110.572H34.1514V110.553L51.2275 110.543V110.572ZM85.3789 110.572H68.3027V110.533L85.3789 110.523V110.572ZM34.1514 110.553L17.0762 110.562V82.9277L34.1514 55.2852V110.553ZM68.3027 110.533L51.2275 110.543V27.6416L68.3027 0V110.533ZM106 94.7139H128.5C133.7 94.7139 138.55 93.7143 143.05 91.7148C147.65 89.6101 151.65 86.7685 155.05 83.1904C158.45 79.6123 161.1 75.4554 163 70.7197C165 65.8788 166 60.7223 166 55.25C166 49.7776 165 44.6732 163 39.9375C161.1 35.0967 158.45 30.8876 155.05 27.3096C151.65 23.7315 147.65 20.9419 143.05 18.9424C138.55 16.8378 133.7 15.7861 128.5 15.7861H106V94.7139ZM51.2275 27.6416L34.1514 55.2852V0H51.2275V27.6416ZM128.5 0C135.7 0 142.5 1.47326 148.9 4.41992C155.3 7.26134 160.85 11.2084 165.55 16.2598C170.35 21.2059 174.1 27.0462 176.8 33.7812C179.6 40.5165 181 47.6729 181 55.25C181 62.8271 179.6 69.9835 176.8 76.7188C174.1 83.4539 170.35 89.3471 165.55 94.3984C160.85 99.3446 155.3 103.292 148.9 106.238C142.5 109.08 135.7 110.5 128.5 110.5L85.3789 110.523V0H128.5Z" fill="black"/>
</svg>
